<?xml version="1.0"?>
<!-- Generated by SVGo -->
<svg width="640" height="520"
     viewBox="0 0 640 520"
     role="img"
     font-family="-apple-system, BlinkMacSystemFont, 'Segoe UI', Helvetica, Arial, sans-serif"
     xmlns="http://www.w3.org/2000/svg"
     xmlns:xlink="http://www.w3.org/1999/xlink">
<title>Token Profile — last 3 days</title>
<rect x="0" y="0" width="640" height="520" fill="#ffffff" />
<rect x="1" y="1" width="638" height="518" rx="12" ry="12" fill="none" stroke="#d0d7de" stroke-width="2" />
<text x="32" y="40" font-size="22" fill="#0969da" font-weight="600" >Token Profile — last 3 days</text>
<line x1="32" y1="56" x2="608" y2="56" stroke="#d0d7de" stroke-width="1" />
<rect x="32" y="68" width="180" height="76" rx="8" ry="8" fill="#f6f8fa" />
<text x="44" y="88" font-size="11" fill="#656d76" font-weight="600" letter-spacing="1" >TOKENS</text>
<text x="44" y="114" font-size="22" fill="#1f2328" font-weight="700" >2,700</text>
<rect x="156" y="122" width="44" height="20" rx="10" ry="10" fill="#dafbe1" />
<text x="164" y="136" font-size="10" fill="#1a7f37" font-weight="600" >+50%</text>
<rect x="230" y="68" width="180" height="76" rx="8" ry="8" fill="#f6f8fa" />
<text x="242" y="88" font-size="11" fill="#656d76" font-weight="600" letter-spacing="1" >COST</text>
<text x="242" y="114" font-size="22" fill="#1f2328" font-weight="700" >$4.05</text>
<rect x="354" y="122" width="44" height="20" rx="10" ry="10" fill="#ffebe9" />
<text x="362" y="136" font-size="10" fill="#cf222e" font-weight="600" >-10%</text>
<rect x="428" y="68" width="180" height="76" rx="8" ry="8" fill="#f6f8fa" />
<text x="440" y="88" font-size="11" fill="#656d76" font-weight="600" letter-spacing="1" >STREAK</text>
<text x="440" y="114" font-size="22" fill="#1f2328" font-weight="700" >3 days 🔥</text>
<text x="32" y="158" font-size="12" fill="#656d76" font-weight="600" letter-spacing="1" >TREND</text>
<line x1="90" y1="288" x2="608" y2="288" stroke="#d8dee4" stroke-width="1" />
<defs>
<linearGradient id="areaFill" x1="0%" y1="0%" x2="0%" y2="100%">
<stop offset="0%" stop-color="#0969da" stop-opacity="0.28"/>
<stop offset="100%" stop-color="#0969da" stop-opacity="0.00"/>
</linearGradient>
</defs>
<polygon points="90,168 349,228 608,288 608,288 90,288" fill="url(#areaFill)" />
<polyline points="90,168 349,228 608,288" fill="none" stroke="#0969da" stroke-width="3" stroke-linecap="round" stroke-linejoin="round" />
<text x="90" y="306" font-size="12" fill="#656d76" >06-30</text>
<text x="608" y="306" font-size="12" fill="#656d76" text-anchor="end" >07-02</text>
<text x="82" y="172" font-size="12" fill="#656d76" text-anchor="end" >1,200</text>
<text x="82" y="288" font-size="12" fill="#656d76" text-anchor="end" >600</text>
<text x="32" y="320" font-size="12" fill="#656d76" font-weight="600" letter-spacing="1" >Breakdown (per model):</text>
<text x="32" y="344" font-size="13" fill="#1f2328" >claude-sonnet-5</text>
<rect x="200" y="335" width="160" height="8" rx="4" ry="4" fill="#eaeef2" />
<rect x="200" y="335" width="160" height="8" rx="4" ry="4" fill="#0969da" />
<text x="420" y="344" font-size="13" fill="#656d76" text-anchor="end" >2,200</text>
<text x="608" y="344" font-size="13" fill="#656d76" text-anchor="end" >$3.30</text>
<text x="32" y="366" font-size="13" fill="#1f2328" >gpt-5.4</text>
<rect x="200" y="357" width="160" height="8" rx="4" ry="4" fill="#eaeef2" />
<rect x="200" y="357" width="36" height="8" rx="4" ry="4" fill="#8250df" />
<text x="420" y="366" font-size="13" fill="#656d76" text-anchor="end" >500</text>
<text x="608" y="366" font-size="13" fill="#656d76" text-anchor="end" >$0.75</text>
<text x="32" y="504" font-size="11" fill="#656d76" >Last updated: 2026-07-02 10:19 UTC</text>
</svg>
